<?xml version="1.0" encoding="utf-8"?>
<!-- Generator: Adobe Illustrator 24.2.0, SVG Export Plug-In . SVG Version: 6.00 Build 0)  -->
<svg version="1.1" id="Camada_1" xmlns="http://www.w3.org/2000/svg" xmlns:xlink="http://www.w3.org/1999/xlink" x="0px" y="0px"
	 viewBox="0 0 400 113" style="enable-background:new 0 0 400 113;" xml:space="preserve">
<style type="text/css">
	.st0{fill:#FFFFFF;}
	.st1{fill:#1B1B1B;}
</style>
<g>
	<path class="st0" d="M0,113C0,75.3,0,37.6,0,0c133.4,0,266.7,0,400,0c0,37.7,0,75.4,0,113C266.6,113,133.3,113,0,113z M56,58.7
		c0.9-0.4,2.1-1,3.3-1.6c7.5-3.6,11.1-10,10.4-18.1c-0.8-8.2-5-13-13.4-15.3c-12.2-3.4-24.6-2-36.9-2.1c-0.8,0-1.6,1-2.5,1.5
		c0.8,0.7,1.6,1.8,2.5,1.9c3.5,0.4,4.4,2.5,4.4,5.5c0,17.4,0,34.7,0,52.1c0,2.9-1,4.8-4.2,5.3c-1,0.2-1.8,1.1-2.7,1.7
		c1,0.6,2.1,1.6,3.1,1.7c6.5,0.2,13,0.2,19.6,0c1.2,0,2.4-1.1,3.6-1.6c-1-0.6-2-1.7-3.1-1.8c-3.5-0.5-5.1-2.4-5-5.9
		c0.1-6.1,0.1-12.3,0-18.4c-0.1-3.5,1.8-4.2,4.2-2.8c3.1,1.7,6.6,3.5,8.6,6.2c4.9,6.6,8.9,13.9,13.5,20.7c1,1.5,2.7,3.4,4.2,3.6
		c4.1,0.5,8.2,0.3,12.3,0.1c0.8,0,1.7-1,2.5-1.5c-0.7-0.6-1.3-1.7-2.1-1.8c-4-0.6-6.2-3.4-8.1-6.5C65.5,74,60.9,66.6,56,58.7z
		 M256.1,90.3c0-0.5,0-0.9,0-1.4c-1.1-0.3-2.1-0.9-3.2-1c-4-0.4-5.5-2.4-5.3-6.4c0.2-5.1,0.2-10.2,0-15.2c-0.1-3,0.7-4.3,4-4.3
		c4.6,0,9.3-0.3,13.9-1.2c7.3-1.3,13.4-4.5,15.7-12.3c4-13.6-2.7-24.4-16.8-25.8c-10.6-1.1-21.2-0.7-31.9-0.9c-1,0-2,0.9-2.9,1.4
		c0.9,0.7,1.8,1.7,2.9,1.9c2.7,0.5,3.8,2,3.8,4.7c0,17.8,0,35.5,0,53.3c0,2.7-1,4.2-3.7,4.8c-1.1,0.2-2,1.3-3,1.9
		c1.1,0.5,2.1,1.5,3.3,1.5c6.6,0.2,13.3,0.1,20,0C253.8,91.3,255,90.7,256.1,90.3z M156.6,54.3c-5-8.4-9.3-15.7-13.6-23.1
		c-2.6-4.5-2.5-4.7,2.6-6.4c0.8-0.3,1.3-1,2-1.6c-0.6-0.6-1.2-1.6-1.9-1.6c-7.1-0.1-14.1-0.1-21.1,0c-0.7,0-1.3,1-2,1.5
		c0.6,0.6,1.1,1.3,1.7,1.9c1.9,1.9,4.4,3.5,5.8,5.7c5.3,8.6,10.3,17.5,15.3,26.3c0.8,1.5,1.5,3.2,1.5,4.9c0.2,6.8,0.1,13.6,0.1,20.4
		c0,3-0.8,5.2-4.3,5.5c-0.9,0.1-1.6,1.3-2.4,2c0.8,0.5,1.7,1.4,2.5,1.4c6.6,0.1,13.3,0.1,19.9,0c0.9,0,1.8-1.1,2.7-1.7
		c-0.8-0.6-1.5-1.7-2.3-1.8c-4-0.2-4.7-2.8-4.7-6c0-6.9-0.1-13.9,0.1-20.8c0.1-1.9,0.7-4,1.7-5.6c4.4-7.6,8.8-15.3,13.6-22.6
		c2-3,5.2-5.1,7.8-7.6c0.6-0.6,1.1-1.3,1.7-2c-0.8-0.5-1.6-1.5-2.4-1.5c-4.4-0.2-8.8-0.1-13.2,0c-0.8,0-1.5,0.8-2.2,1.3
		c0.7,0.7,1.2,1.7,2,1.9c3.3,0.9,4.1,3.1,2.6,5.8C165.9,38.1,161.5,45.7,156.6,54.3z M358.3,53.7c-1-1.1-1.7-1.6-2-2.2
		c-4.1-6.9-8.2-13.7-12.2-20.7c-2.3-4-1.9-4.6,2.6-5.9c0.9-0.3,1.6-1.1,2.4-1.6c-0.8-0.6-1.5-1.7-2.3-1.7c-6.9-0.1-13.8-0.1-20.7,0
		c-0.7,0-1.5,0.9-2.2,1.3c0.5,0.7,0.9,1.4,1.5,2c2.1,2.1,4.8,3.8,6.3,6.3c5.3,8.5,10.2,17.2,15.1,25.9c0.8,1.5,1.7,3.2,1.7,4.8
		c0.2,6.5,0.1,13.1,0,19.6c-0.1,3.2-0.7,6.2-5,6.4c-0.7,0-1.4,1.2-2.1,1.9c0.8,0.5,1.7,1.4,2.5,1.5c6.8,0.1,13.6,0.1,20.3,0
		c0.8,0,1.6-0.9,2.5-1.5c-0.7-0.7-1.4-1.9-2-1.9c-4.5-0.1-5-3.2-5-6.6c0-6.8-0.1-13.6,0-20.4c0-1.7,0.5-3.5,1.4-4.9
		c4.7-8,9.4-16.1,14.6-23.9c1.8-2.7,4.7-4.5,7-6.8c0.7-0.7,1.3-1.5,1.9-2.2c-1-0.5-1.9-1.4-2.9-1.5c-4.1-0.2-8.3-0.2-12.4,0
		c-0.9,0-1.7,0.9-2.6,1.3c0.7,0.6,1.3,1.7,2.1,1.9c3,0.8,4.1,2.8,2.8,5.4C367.4,37.9,362.9,45.6,358.3,53.7z M105.3,56.5
		c0-11.2,0-22.4,0-33.6c0-1.3,0.1-2.8-0.4-3.9c-0.3-0.7-1.5-1.5-2.3-1.5s-2,0.8-2.3,1.6c-0.4,1.2-0.3,2.6-0.3,4
		c0,22.4,0,44.8,0,67.3c0,1.3-0.2,2.8,0.3,3.9c0.3,0.8,1.7,1.6,2.6,1.6c0.7,0,1.9-0.9,2.2-1.7c0.4-1.1,0.3-2.4,0.3-3.6
		C105.3,79.2,105.3,67.8,105.3,56.5z M308.1,56.5c0-11.7,0-23.5-0.1-35.2c0-1.3-0.7-2.7-1.5-3.7c-0.3-0.4-2.3-0.2-2.5,0.2
		c-0.7,1.2-1.1,2.7-1.1,4c-0.1,23.4,0,46.7,0,70.1c0,2-0.2,4.3,2.9,4.1c2.9-0.2,2.3-2.5,2.3-4.2C308.2,80,308.1,68.2,308.1,56.5z
		 M207.9,56.5c0-0.8,0-1.6,0-2.4c0-11,0-21.9-0.1-32.9c0-1.3-0.7-2.7-1.6-3.7c-0.4-0.4-2.5-0.2-2.8,0.3c-0.7,1.2-0.9,2.7-0.9,4.1
		c-0.1,15,0,29.9,0,44.9c0,8.4,0,16.8,0,25.3c0,2.3,0.5,4.4,3.2,3.6c1-0.3,2.1-2.6,2.1-3.9C208,80,207.9,68.3,207.9,56.5z"/>
	<path class="st1" d="M56,58.7c4.9,7.8,9.5,15.3,14.1,22.7c1.9,3.1,4.1,5.9,8.1,6.5c0.8,0.1,1.4,1.2,2.1,1.8
		c-0.8,0.5-1.6,1.4-2.5,1.5c-4.1,0.2-8.3,0.4-12.3-0.1c-1.5-0.2-3.2-2-4.2-3.6c-4.6-6.9-8.6-14.1-13.5-20.7c-2-2.7-5.5-4.5-8.6-6.2
		c-2.5-1.4-4.3-0.7-4.2,2.8c0.1,6.1,0.1,12.3,0,18.4c-0.1,3.6,1.5,5.4,5,5.9c1.1,0.2,2.1,1.2,3.1,1.8c-1.2,0.6-2.4,1.6-3.6,1.6
		c-6.5,0.2-13,0.2-19.5,0c-1.1,0-2.1-1.1-3.1-1.7c0.9-0.6,1.7-1.6,2.7-1.7c3.1-0.5,4.2-2.4,4.2-5.3c0-17.4,0-34.7,0-52.1
		c0-3-1-5.1-4.4-5.5c-0.9-0.1-1.6-1.2-2.5-1.9c0.8-0.5,1.6-1.5,2.5-1.5c12.3,0.1,24.8-1.3,36.9,2.1C64.6,26,68.9,30.8,69.6,39
		c0.8,8.1-2.9,14.5-10.4,18.2C58.1,57.7,56.9,58.3,56,58.7z M35.1,42C35,42,35,42,35.1,42c0,3.9-0.2,7.7,0.1,11.6
		c0.1,1.2,1.6,3.3,2.3,3.2c4.4-0.4,9.2-0.4,13.2-2.1c6.9-2.8,9.5-13.6,6-21.7c-2.7-6.2-11.8-10.4-18.2-7.8c-1.5,0.6-3,3-3.3,4.8
		C34.7,34,35.1,38,35.1,42z"/>
	<path class="st1" d="M256.1,90.3c-1.1,0.3-2.3,1-3.4,1c-6.6,0.1-13.3,0.1-20,0c-1.1,0-2.2-1-3.3-1.5c1-0.7,1.9-1.7,3-1.9
		c2.7-0.6,3.7-2.2,3.7-4.8c0-17.8,0-35.5,0-53.3c0-2.7-1.1-4.2-3.8-4.7c-1-0.2-1.9-1.2-2.9-1.9c1-0.5,2-1.4,2.9-1.4
		c10.6,0.2,21.3-0.1,31.9,0.9c14.2,1.4,20.9,12.2,16.8,25.8c-2.3,7.8-8.5,11-15.7,12.3c-4.5,0.8-9.3,1.1-13.9,1.2
		c-3.3,0-4.1,1.3-4,4.3c0.2,5.1,0.2,10.2,0,15.2c-0.2,3.9,1.4,6,5.3,6.4c1.1,0.1,2.1,0.7,3.2,1C256.1,89.4,256.1,89.8,256.1,90.3z
		 M247.6,42.8C247.6,42.8,247.6,42.8,247.6,42.8c0,4.1-0.1,8.3,0.1,12.4c0.1,1.1,0.8,2.8,1.6,3.1c8.2,3.2,19-2.8,20.9-11.5
		c3-13.7-4.4-23.3-17.1-22c-3.4,0.4-5.4,2-5.4,5.6C247.6,34.5,247.6,38.7,247.6,42.8z"/>
	<path class="st1" d="M156.6,54.3c4.9-8.6,9.3-16.1,13.5-23.8c1.5-2.7,0.7-4.9-2.6-5.8c-0.8-0.2-1.4-1.3-2-1.9
		c0.7-0.4,1.5-1.3,2.2-1.3c4.4-0.1,8.8-0.1,13.2,0c0.8,0,1.6,1,2.4,1.5c-0.6,0.7-1.1,1.4-1.7,2c-2.6,2.5-5.9,4.7-7.8,7.6
		c-4.9,7.3-9.3,15-13.6,22.6c-1,1.7-1.6,3.7-1.7,5.6c-0.2,6.9,0,13.9-0.1,20.8c0,3.3,0.7,5.8,4.7,6c0.8,0,1.5,1.1,2.3,1.8
		c-0.9,0.6-1.8,1.7-2.7,1.7c-6.6,0.2-13.3,0.1-19.9,0c-0.9,0-1.7-0.9-2.5-1.4c0.8-0.7,1.6-1.9,2.4-2c3.6-0.3,4.3-2.5,4.3-5.5
		c0-6.8,0.1-13.6-0.1-20.4c0-1.6-0.7-3.4-1.5-4.9c-5-8.8-10-17.6-15.3-26.3c-1.4-2.3-3.8-3.8-5.8-5.7c-0.6-0.6-1.2-1.3-1.7-1.9
		c0.7-0.5,1.3-1.5,2-1.5c7-0.1,14.1-0.1,21.1,0c0.6,0,1.3,1,1.9,1.6c-0.6,0.5-1.2,1.4-2,1.6c-5.1,1.7-5.2,1.9-2.6,6.4
		C147.3,38.6,151.6,45.9,156.6,54.3z"/>
	<path class="st1" d="M358.3,53.7c4.6-8.1,9.1-15.8,13.3-23.6c1.4-2.6,0.3-4.6-2.8-5.4c-0.8-0.2-1.4-1.2-2.1-1.9
		c0.9-0.5,1.7-1.3,2.6-1.3c4.1-0.1,8.3-0.1,12.4,0c1,0,1.9,1,2.9,1.5c-0.6,0.7-1.2,1.5-1.9,2.2c-2.4,2.3-5.3,4.1-7,6.8
		c-5.1,7.8-9.8,15.9-14.6,23.9c-0.8,1.4-1.3,3.2-1.4,4.9c-0.1,6.8-0.1,13.6,0,20.4c0,3.4,0.4,6.5,5,6.6c0.7,0,1.4,1.2,2,1.9
		c-0.8,0.5-1.6,1.4-2.5,1.5c-6.8,0.1-13.6,0.1-20.3,0c-0.8,0-1.7-0.9-2.5-1.5c0.7-0.7,1.4-1.8,2.1-1.9c4.3-0.2,4.9-3.2,5-6.4
		c0.2-6.5,0.2-13.1,0-19.6c0-1.6-0.9-3.3-1.7-4.8c-5-8.7-9.9-17.4-15.1-25.9c-1.5-2.5-4.2-4.2-6.3-6.3c-0.6-0.6-1-1.3-1.5-2
		c0.7-0.5,1.5-1.3,2.2-1.3c6.9-0.1,13.8-0.1,20.7,0c0.8,0,1.5,1.1,2.3,1.7c-0.8,0.6-1.5,1.4-2.4,1.6c-4.5,1.3-4.9,1.9-2.6,5.9
		c4,6.9,8.1,13.8,12.2,20.7C356.7,52.1,357.3,52.6,358.3,53.7z"/>
	<path class="st1" d="M105.3,56.5c0,11.3,0,22.7,0,34c0,1.2,0.2,2.5-0.3,3.6c-0.3,0.8-1.4,1.7-2.2,1.7c-0.9-0.1-2.3-0.8-2.6-1.6
		c-0.5-1.2-0.3-2.6-0.3-3.9c0-22.4,0-44.8,0-67.3c0-1.3-0.1-2.8,0.3-4c0.3-0.7,1.5-1.6,2.3-1.6c0.8,0,2,0.8,2.3,1.5
		c0.5,1.2,0.4,2.6,0.4,3.9C105.3,34.1,105.3,45.3,105.3,56.5z"/>
	<path class="st1" d="M308.1,56.5c0,11.7,0,23.5,0,35.2c0,1.7,0.6,4-2.3,4.2c-3.1,0.2-2.9-2.1-2.9-4.1c0-23.3,0-46.7,0-70.1
		c0-1.4,0.5-2.8,1.1-4c0.3-0.5,2.2-0.6,2.5-0.2c0.8,1.1,1.5,2.5,1.5,3.7C308.2,33,308.1,44.7,308.1,56.5z"/>
	<path class="st1" d="M207.9,56.5c0,11.8,0.1,23.5-0.1,35.3c0,1.4-1.1,3.6-2.1,3.9c-2.7,0.8-3.2-1.3-3.2-3.6c0-8.4,0-16.8,0-25.3
		c0-15,0-29.9,0-44.9c0-1.4,0.2-2.9,0.9-4.1c0.3-0.5,2.4-0.8,2.8-0.3c0.9,1,1.6,2.4,1.6,3.7c0.1,11,0.1,21.9,0.1,32.9
		C207.9,54.9,207.9,55.7,207.9,56.5z"/>
	<path class="st0" d="M35.1,42c0-4-0.3-8,0.2-12c0.2-1.8,1.7-4.2,3.3-4.8c6.3-2.6,15.5,1.6,18.2,7.8c3.5,8,0.8,18.9-6,21.7
		c-4,1.6-8.7,1.7-13.2,2.1c-0.7,0.1-2.2-2-2.3-3.2C34.8,49.8,35,45.9,35.1,42C35,42,35.1,42,35.1,42z"/>
	<path class="st0" d="M247.6,42.8c0-4.1,0-8.3,0-12.4c0-3.6,2-5.3,5.4-5.6c12.7-1.3,20.1,8.3,17.1,22c-1.9,8.6-12.7,14.7-20.9,11.5
		c-0.8-0.3-1.6-2-1.6-3.1C247.5,51.1,247.6,47,247.6,42.8C247.6,42.8,247.6,42.8,247.6,42.8z"/>
</g>
</svg>
