<?xml version="1.0" encoding="utf-8"?>
<!-- Generator: Adobe Illustrator 24.2.0, SVG Export Plug-In . SVG Version: 6.00 Build 0)  -->
<svg version="1.1" id="Camada_1" xmlns="http://www.w3.org/2000/svg" xmlns:xlink="http://www.w3.org/1999/xlink" x="0px" y="0px"
	 viewBox="0 0 400 113" style="enable-background:new 0 0 400 113;" xml:space="preserve">
<style type="text/css">
	.st0{fill:#1B1B1B;}
	.st1{fill:#FFFFFF;}
</style>
<g>
	<rect y="-0.2" class="st0" width="400" height="113.2"/>
	<path class="st1" d="M156.6,54.3c4.9-8.6,9.3-16.1,13.5-23.8c1.5-2.7,0.7-4.9-2.6-5.8c-0.8-0.2-1.4-1.3-2-1.9
		c0.7-0.4,1.5-1.3,2.2-1.3c4.4-0.1,8.8-0.1,13.2,0c0.8,0,1.6,1,2.4,1.5c-0.6,0.7-1.1,1.4-1.7,2c-2.6,2.5-5.9,4.7-7.8,7.6
		c-4.9,7.3-9.3,15-13.6,22.6c-1,1.7-1.6,3.7-1.7,5.6c-0.2,6.9,0,13.9-0.1,20.8c0,3.3,0.7,5.8,4.7,6c0.8,0,1.5,1.1,2.3,1.8
		c-0.9,0.6-1.8,1.7-2.7,1.7c-6.6,0.2-13.3,0.1-19.9,0c-0.9,0-1.7-0.9-2.5-1.4c0.8-0.7,1.6-1.9,2.4-2c3.6-0.3,4.3-2.5,4.3-5.5
		c0-6.8,0.1-13.6-0.1-20.4c0-1.6-0.7-3.4-1.5-4.9c-5-8.8-10-17.6-15.3-26.3c-1.4-2.3-3.8-3.8-5.8-5.7c-0.6-0.6-1.2-1.3-1.7-1.9
		c0.7-0.5,1.3-1.5,2-1.5c7-0.1,14.1-0.1,21.1,0c0.6,0,1.3,1,1.9,1.6c-0.6,0.5-1.2,1.4-2,1.6c-5.1,1.7-5.2,1.9-2.6,6.4
		C147.3,38.6,151.6,45.9,156.6,54.3z"/>
	<path class="st1" d="M358.3,53.7c4.6-8.1,9.1-15.8,13.3-23.6c1.4-2.6,0.3-4.6-2.8-5.4c-0.8-0.2-1.4-1.2-2.1-1.9
		c0.9-0.5,1.7-1.3,2.6-1.3c4.1-0.1,8.3-0.1,12.4,0c1,0,1.9,1,2.9,1.5c-0.6,0.7-1.2,1.5-1.9,2.2c-2.4,2.3-5.3,4.1-7,6.8
		c-5.1,7.8-9.8,15.9-14.6,23.9c-0.8,1.4-1.3,3.2-1.4,4.9c-0.1,6.8-0.1,13.6,0,20.4c0,3.4,0.4,6.5,5,6.6c0.7,0,1.4,1.2,2,1.9
		c-0.8,0.5-1.6,1.4-2.5,1.5c-6.8,0.1-13.6,0.1-20.3,0c-0.8,0-1.7-0.9-2.5-1.5c0.7-0.7,1.4-1.8,2.1-1.9c4.3-0.2,4.9-3.2,5-6.4
		c0.2-6.5,0.2-13.1,0-19.6c0-1.6-0.9-3.3-1.7-4.8c-5-8.7-9.9-17.4-15.1-25.9c-1.5-2.5-4.2-4.2-6.3-6.3c-0.6-0.6-1-1.3-1.5-2
		c0.7-0.5,1.5-1.3,2.2-1.3c6.9-0.1,13.8-0.1,20.7,0c0.8,0,1.5,1.1,2.3,1.7c-0.8,0.6-1.5,1.4-2.4,1.6c-4.5,1.3-4.9,1.9-2.6,5.9
		c4,6.9,8.1,13.8,12.2,20.7C356.7,52.1,357.3,52.6,358.3,53.7z"/>
	<path class="st1" d="M105.3,56.5c0,11.3,0,22.7,0,34c0,1.2,0.2,2.5-0.3,3.6c-0.3,0.8-1.4,1.7-2.2,1.7c-0.9-0.1-2.3-0.8-2.6-1.6
		c-0.5-1.2-0.3-2.6-0.3-3.9c0-22.4,0-44.8,0-67.3c0-1.3-0.1-2.8,0.3-4c0.3-0.7,1.5-1.6,2.3-1.6c0.8,0,2,0.8,2.3,1.5
		c0.5,1.2,0.4,2.6,0.4,3.9C105.3,34.1,105.3,45.3,105.3,56.5z"/>
	<path class="st1" d="M308.1,56.5c0,11.7,0,23.5,0,35.2c0,1.7,0.6,4-2.3,4.2c-3.1,0.2-2.9-2.1-2.9-4.1c0-23.3,0-46.7,0-70.1
		c0-1.4,0.5-2.8,1.1-4c0.3-0.5,2.2-0.6,2.5-0.2c0.8,1.1,1.5,2.5,1.5,3.7C308.2,33,308.1,44.7,308.1,56.5z"/>
	<path class="st1" d="M207.9,56.5c0,11.8,0.1,23.5-0.1,35.3c0,1.4-1.1,3.6-2.1,3.9c-2.7,0.8-3.2-1.3-3.2-3.6c0-8.4,0-16.8,0-25.3
		c0-15,0-29.9,0-44.9c0-1.4,0.2-2.9,0.9-4.1c0.3-0.5,2.4-0.8,2.8-0.3c0.9,1,1.6,2.4,1.6,3.7c0.1,11,0.1,21.9,0.1,32.9
		C207.9,54.9,207.9,55.7,207.9,56.5z"/>
	<path class="st1" d="M78.2,88c-4-0.6-6.2-3.4-8.1-6.5C65.5,74,60.9,66.6,56,58.7c0.9-0.4,2.1-1,3.3-1.6c7.5-3.6,11.1-10,10.4-18.2
		c-0.8-8.2-5-13-13.4-15.3c-12.2-3.4-24.6-2-36.9-2.1c-0.8,0-1.6,1-2.5,1.5c0.8,0.6,1.6,1.8,2.5,1.9c3.5,0.4,4.4,2.5,4.4,5.5
		c0,17.4,0,34.7,0,52.1c0,2.9-1,4.8-4.2,5.3c-1,0.2-1.8,1.1-2.7,1.7c1,0.6,2.1,1.6,3.1,1.7c6.5,0.2,13,0.2,19.6,0
		c1.2,0,2.4-1,3.6-1.6c-1-0.6-2-1.6-3.1-1.8c-3.5-0.5-5.1-2.4-5-6c0.1-6.1,0.1-12.3,0-18.4c-0.1-3.5,1.7-4.2,4.2-2.8
		c3.1,1.7,6.6,3.5,8.6,6.2c4.9,6.6,8.9,13.9,13.5,20.7c1,1.5,2.7,3.4,4.2,3.5c4.1,0.5,8.2,0.3,12.4,0.1c0.8,0,1.7-1,2.5-1.5
		C79.7,89.2,79,88.1,78.2,88z M50.6,54.7c-4,1.6-8.7,1.7-13.2,2.1c-0.7,0.1-2.2-2-2.3-3.2C34.8,49.8,35,45.9,35,42c0,0,0,0,0,0
		c0-2.5-0.1-5-0.1-7.5c0-1.5,0.1-3,0.3-4.5c0.2-1.8,1.7-4.2,3.3-4.8c6.3-2.6,15.5,1.6,18.2,7.8C60.1,41.1,57.5,51.9,50.6,54.7z"/>
	<path class="st1" d="M264.3,22.6c-10.5-1.1-21.2-0.7-31.9-0.9c-1,0-2,0.9-2.9,1.4c0.9,0.7,1.8,1.7,2.9,1.9c2.7,0.5,3.8,2,3.8,4.7
		c0,17.8,0,35.5,0,53.3c0,2.6-1,4.2-3.7,4.8c-1.1,0.2-2,1.3-3,1.9c1.1,0.5,2.2,1.5,3.3,1.5c6.6,0.2,13.3,0.1,20,0
		c1.1,0,2.3-0.7,3.4-1c0-0.5,0-1-0.1-1.4c-1.1-0.3-2.1-0.9-3.2-1c-4-0.4-5.5-2.5-5.3-6.4c0.2-5.1,0.2-10.2,0-15.2
		c-0.1-3,0.7-4.3,4-4.3c4.6,0,9.3-0.3,13.9-1.2c7.3-1.3,13.4-4.5,15.7-12.3C285.1,34.8,278.5,24.1,264.3,22.6z M270.2,46.8
		c-0.5,2.2-1.5,4.2-2.9,5.9c-4.2,5.2-11.9,8-18,5.6c-0.8-0.3-1.6-2-1.6-3.1c-0.2-4.1-0.1-8.3-0.1-12.4c0,0,0,0,0,0c0,0,0,0,0,0
		c0,0,0,0,0,0c0-2.5,0-5,0-7.4c0-1.6,0-3.3,0-4.9c0-1.8,0.5-3.1,1.4-4c0.9-0.9,2.3-1.4,4-1.6C265.7,23.5,273.2,33.1,270.2,46.8z"/>
</g>
</svg>
